<svg xmlns="http://www.w3.org/2000/svg" viewBox="0 0 158.3 158.3" width="64" height="64">
  <rect x="1" y="1" width="156.3" height="156.3" rx="34.8" fill="#0b0f0a" stroke="#1c2a1a" stroke-width="1.4"/>
  <g transform="translate(26.0,42.2)"><g transform="translate(-7.7,56)"><path d="M20.200 18L7.700 18L7.700-55L19.900-55L19.900-44.900Q21.400-50.100 25.300-53.050Q29.200-56 35-56L35-56Q40.300-56 44.350-53.400Q48.400-50.800 50.650-46.050Q52.900-41.300 52.900-35L52.900-35L52.900-20.100Q52.900-10.600 48-4.800Q43.100 1 35 1L35 1Q29.200 1 25.250-2Q21.300-5 19.800-10.400L19.800-10.400L20.200 2.600L20.200 18ZM30.300-9.800L30.300-9.800Q35.100-9.800 37.750-12.400Q40.400-15 40.400-20.400L40.400-20.400L40.400-34.600Q40.400-40 37.750-42.600Q35.100-45.200 30.300-45.200L30.300-45.200Q25.500-45.200 22.850-42.300Q20.200-39.400 20.200-34.100L20.200-34.100L20.200-20.900Q20.200-15.600 22.850-12.700Q25.500-9.800 30.300-9.800Z" fill="#c9e8c2"/><path d="M114 13.800L66 13.800L66 2.500L114 2.500L114 13.800Z" fill="#7cf27c"/></g></g>
</svg>